0
SECTION
2
HEADER
9
$INSUNITS
70
4
9
$ACADVER
1
AC1014
9
$HANDSEED
5
FFFF
0
ENDSEC
0
SECTION
2
TABLES
0
TABLE
2
VPORT
5
8
100
AcDbSymbolTable
0
ENDTAB
0
TABLE
2
LTYPE
5
5
100
AcDbSymbolTable
70
3
0
LTYPE
5
14
100
AcDbSymbolTableRecord
100
AcDbLinetypeTableRecord
2
BYBLOCK
70
0
0
LTYPE
5
15
100
AcDbSymbolTableRecord
100
AcDbLinetypeTableRecord
2
BYLAYER
70
0
0
LTYPE
5
16
100
AcDbSymbolTableRecord
100
AcDbLinetypeTableRecord
2
DASHED
70
0
3
Dashed __ __ __ __ __ __ __ __ __ __ __ __ __ _
72
65
73
2
40
0.75
49
0.5
74
0
49
-0.25
74
0
0
ENDTAB
0
TABLE
2
LAYER
5
2
100
AcDbSymbolTable
70
3
0
LAYER
5
50
100
AcDbSymbolTableRecord
100
AcDbLayerTableRecord
2
0
70
0
6
CONTINUOUS
0
LAYER
5
51
100
AcDbSymbolTableRecord
100
AcDbLayerTableRecord
2
CUTOUTS
70
0
62
1
6
CONTINUOUS
0
LAYER
5
52
100
AcDbSymbolTableRecord
100
AcDbLayerTableRecord
2
PERIMETER
70
0
62
5
6
CONTINUOUS
0
ENDTAB
0
TABLE
2
STYLE
5
3
100
AcDbSymbolTable
70
1
0
STYLE
5
11
100
AcDbSymbolTableRecord
100
AcDbTextStyleTableRecord
2
STANDARD
70
0
0
ENDTAB
0
TABLE
2
VIEW
5
6
100
AcDbSymbolTable
0
ENDTAB
0
TABLE
2
UCS
5
7
100
AcDbSymbolTable
0
ENDTAB
0
TABLE
2
APPID
5
9
100
AcDbSymbolTable
70
1
0
APPID
5
12
100
AcDbSymbolTableRecord
100
AcDbRegAppTableRecord
2
ACAD
70
0
0
ENDTAB
0
TABLE
2
DIMSTYLE
5
A
100
AcDbSymbolTable
0
ENDTAB
0
TABLE
2
BLOCK_RECORD
5
1
100
AcDbSymbolTable
70
2
0
BLOCK_RECORD
5
1F
100
AcDbSymbolTableRecord
100
AcDbBlockTableRecord
2
*MODEL_SPACE
0
BLOCK_RECORD
5
1B
100
AcDbSymbolTableRecord
100
AcDbBlockTableRecord
2
*PAPER_SPACE
0
ENDTAB
0
ENDSEC
0
SECTION
2
BLOCKS
0
BLOCK
5
20
100
AcDbEntity
100
AcDbBlockBegin
2
*MODEL_SPACE
0
ENDBLK
5
21
100
AcDbEntity
100
AcDbBlockEnd
0
BLOCK
5
1C
100
AcDbEntity
100
AcDbBlockBegin
2
*PAPER_SPACE
0
ENDBLK
5
1D
100
AcDbEntity
100
AcDbBlockEnd
0
ENDSEC
0
SECTION
2
ENTITIES
0
CIRCLE
5
100
100
AcDbEntity
8
CUTOUTS
100
AcDbCircle
10
-2.6088227310798641e-13
20
-28.750000000000004
30
0
40
1.0749999999999995
210
0
220
0
230
1
0
CIRCLE
5
101
100
AcDbEntity
8
CUTOUTS
100
AcDbCircle
10
-4.2505365710842645e-13
20
28.75
30
0
40
1.0750000000000015
210
0
220
0
230
1
0
CIRCLE
5
102
100
AcDbEntity
8
CUTOUTS
100
AcDbCircle
10
-87.749999999999972
20
6.4999999999999982
30
0
40
1.0749999999999993
210
0
220
0
230
1
0
CIRCLE
5
103
100
AcDbEntity
8
CUTOUTS
100
AcDbCircle
10
87.750000000000043
20
6.4999999999999991
30
0
40
1.0749999999999993
210
0
220
0
230
1
0
CIRCLE
5
104
100
AcDbEntity
8
CUTOUTS
100
AcDbCircle
10
-69.999999999999943
20
-2.4999999999999956
30
0
40
1.324999999999994
210
0
220
0
230
1
0
CIRCLE
5
105
100
AcDbEntity
8
CUTOUTS
100
AcDbCircle
10
-69.999999999999929
20
-23
30
0
40
1.324999999999994
210
0
220
0
230
1
0
LWPOLYLINE
5
106
100
AcDbEntity
8
CUTOUTS
100
AcDbPolyline
90
8
70
1
43
0.0
10
-65.974999999999966
20
-7.7499999999999813
10
-65.97499999999998
20
-20.549999999999969
42
-0.41421356237309509
10
-66.09999999999998
20
-20.674999999999969
10
-73.899999999999935
20
-20.674999999999962
42
-0.41421356237309509
10
-74.02499999999992
20
-20.549999999999969
10
-74.02499999999992
20
-7.7499999999999813
42
-0.41421356237309509
10
-71.099999999999923
20
-4.8249999999999789
10
-68.899999999999977
20
-4.8249999999999718
42
-0.41421356237309381
0
LWPOLYLINE
5
107
100
AcDbEntity
8
CUTOUTS
100
AcDbPolyline
90
8
70
1
43
0.0
10
-24.424999999999983
20
-25.499999999999972
10
-24.424999999999972
20
-17.499999999999964
42
-0.41421356237309509
10
-22.499999999999972
20
-15.574999999999964
10
73.5
20
-15.574999999999957
42
-0.41421356237309642
10
75.425000000000026
20
-17.499999999999964
10
75.425000000000011
20
-25.499999999999968
42
-0.41421356237309509
10
74.500000000000014
20
-26.424999999999969
10
-23.499999999999979
20
-26.424999999999976
42
-0.41421356237309509
0
LWPOLYLINE
5
108
100
AcDbEntity
8
CUTOUTS
100
AcDbPolyline
90
20
70
1
43
0.0
10
-67.824999999999989
20
2.5750000000001805
10
-72.174999999999898
20
2.5750000000001805
10
-72.174999999999898
20
4.0750000000000366
10
-75.424999999999926
20
4.0750000000000375
10
-75.424999999999926
20
5.4890699666019236
42
-0.2208371413767814
10
-79.620550919775809
20
12.475000000000025
10
-80.675000000000068
20
12.475000000000023
10
-80.675000000000068
20
14.525000000000086
10
-79.620550919775809
20
14.525000000000086
42
-0.22083714137678173
10
-75.424999999999926
20
21.510930033398196
10
-75.424999999999926
20
22.92500000000004
10
-72.17499999999994
20
22.92500000000004
10
-72.17499999999994
20
24.425000000000185
10
-67.82499999999996
20
24.425000000000196
10
-67.82499999999996
20
22.92500000000004
10
-64.574999999999946
20
22.92500000000004
10
-64.574999999999946
20
21.510930033398164
42
-0.53052516777470804
10
-64.574999999999932
20
5.4890699666019653
10
-64.574999999999932
20
4.0750000000000375
10
-67.824999999999989
20
4.0750000000000375
0
LWPOLYLINE
5
109
100
AcDbEntity
8
PERIMETER
100
AcDbPolyline
90
24
70
1
43
0.0
10
90.07500134110451
20
-5.9750000000000174
10
90.07500134110451
20
18.975000000000012
10
85.575000000000131
20
18.975000000000012
10
85.575000000000173
20
31.075000000000003
10
54.924999999999557
20
31.075000000000003
10
54.925000000000033
20
26.575000000000003
10
35.075000000000031
20
26.575000000000028
10
35.074999999999591
20
31.075000000000003
10
-35.075000000000401
20
31.075000000000003
10
-35.074999999999996
20
26.575000000000021
10
-54.924999999999983
20
26.574999999999985
10
-54.925000000000551
20
31.075000000000003
10
-85.574999999999974
20
31.075000000000003
10
-85.57499999999996
20
18.975000000000001
10
-90.07499999999996
20
18.975000000000001
10
-90.074999999999946
20
-5.9750000000000032
10
-85.574999999999918
20
-5.975000000000005
10
-85.574999999999889
20
-31.074999999999996
10
-54.925000000000431
20
-31.075000000000003
10
-54.924999999999955
20
-26.574999999999946
10
-35.07499999999996
20
-26.574999999999918
10
-35.075000000000237
20
-31.075000000000003
10
85.575000000000031
20
-31.074999999999996
10
85.575000000000102
20
-5.974999999999997
0
ENDSEC
0
SECTION
2
OBJECTS
0
DICTIONARY
5
C
100
AcDbDictionary
3
ACAD_GROUP
350
D
3
ACAD_MLINESTYLE
350
17
0
DICTIONARY
5
D
100
AcDbDictionary
0
DICTIONARY
5
1A
330
C
100
AcDbDictionary
0
DICTIONARY
5
17
100
AcDbDictionary
0
ENDSEC
0
EOF
