0
SECTION
2
HEADER
9
$INSUNITS
70
4
9
$ACADVER
1
AC1014
9
$HANDSEED
5
FFFF
0
ENDSEC
0
SECTION
2
TABLES
0
TABLE
2
VPORT
5
8
100
AcDbSymbolTable
0
ENDTAB
0
TABLE
2
LTYPE
5
5
100
AcDbSymbolTable
70
3
0
LTYPE
5
14
100
AcDbSymbolTableRecord
100
AcDbLinetypeTableRecord
2
BYBLOCK
70
0
0
LTYPE
5
15
100
AcDbSymbolTableRecord
100
AcDbLinetypeTableRecord
2
BYLAYER
70
0
0
LTYPE
5
16
100
AcDbSymbolTableRecord
100
AcDbLinetypeTableRecord
2
DASHED
70
0
3
Dashed __ __ __ __ __ __ __ __ __ __ __ __ __ _
72
65
73
2
40
0.75
49
0.5
74
0
49
-0.25
74
0
0
ENDTAB
0
TABLE
2
LAYER
5
2
100
AcDbSymbolTable
70
3
0
LAYER
5
50
100
AcDbSymbolTableRecord
100
AcDbLayerTableRecord
2
0
70
0
6
CONTINUOUS
0
LAYER
5
51
100
AcDbSymbolTableRecord
100
AcDbLayerTableRecord
2
CUTOUTS
70
0
62
1
6
CONTINUOUS
0
LAYER
5
52
100
AcDbSymbolTableRecord
100
AcDbLayerTableRecord
2
PERIMETER
70
0
62
5
6
CONTINUOUS
0
ENDTAB
0
TABLE
2
STYLE
5
3
100
AcDbSymbolTable
70
1
0
STYLE
5
11
100
AcDbSymbolTableRecord
100
AcDbTextStyleTableRecord
2
STANDARD
70
0
0
ENDTAB
0
TABLE
2
VIEW
5
6
100
AcDbSymbolTable
0
ENDTAB
0
TABLE
2
UCS
5
7
100
AcDbSymbolTable
0
ENDTAB
0
TABLE
2
APPID
5
9
100
AcDbSymbolTable
70
1
0
APPID
5
12
100
AcDbSymbolTableRecord
100
AcDbRegAppTableRecord
2
ACAD
70
0
0
ENDTAB
0
TABLE
2
DIMSTYLE
5
A
100
AcDbSymbolTable
0
ENDTAB
0
TABLE
2
BLOCK_RECORD
5
1
100
AcDbSymbolTable
70
2
0
BLOCK_RECORD
5
1F
100
AcDbSymbolTableRecord
100
AcDbBlockTableRecord
2
*MODEL_SPACE
0
BLOCK_RECORD
5
1B
100
AcDbSymbolTableRecord
100
AcDbBlockTableRecord
2
*PAPER_SPACE
0
ENDTAB
0
ENDSEC
0
SECTION
2
BLOCKS
0
BLOCK
5
20
100
AcDbEntity
100
AcDbBlockBegin
2
*MODEL_SPACE
0
ENDBLK
5
21
100
AcDbEntity
100
AcDbBlockEnd
0
BLOCK
5
1C
100
AcDbEntity
100
AcDbBlockBegin
2
*PAPER_SPACE
0
ENDBLK
5
1D
100
AcDbEntity
100
AcDbBlockEnd
0
ENDSEC
0
SECTION
2
ENTITIES
0
CIRCLE
5
100
100
AcDbEntity
8
CUTOUTS
100
AcDbCircle
10
-40.499999999999979
20
15.000000000000039
30
0
40
1.3250000000000028
210
0
220
0
230
1
0
CIRCLE
5
101
100
AcDbEntity
8
CUTOUTS
100
AcDbCircle
10
-89.500000000000028
20
15.000000000000039
30
0
40
1.3250000000000028
210
0
220
0
230
1
0
CIRCLE
5
102
100
AcDbEntity
8
CUTOUTS
100
AcDbCircle
10
-89.5
20
-42.999999999999972
30
0
40
1.3250000000000028
210
0
220
0
230
1
0
CIRCLE
5
103
100
AcDbEntity
8
CUTOUTS
100
AcDbCircle
10
-40.500000000000028
20
-42.999999999999957
30
0
40
1.3250000000000028
210
0
220
0
230
1
0
LWPOLYLINE
5
104
100
AcDbEntity
8
CUTOUTS
100
AcDbPolyline
90
4
70
1
43
0.0
10
55.075000000000003
20
-35.07500000000001
10
59.42499999999999
20
-35.07500000000001
10
59.42499999999999
20
-54.924999999999997
10
55.075000000000003
20
-54.924999999999997
0
LWPOLYLINE
5
105
100
AcDbEntity
8
CUTOUTS
100
AcDbPolyline
90
8
70
1
43
0.0
10
70.07500163912772
20
8.00000059604643
10
70.075001639127734
20
72.000000596046419
42
-0.41421356237310125
10
73.000001639127731
20
74.925000596046431
10
147.00000163912773
20
74.925000596046402
42
-0.41421356237309065
10
149.92500163912774
20
72.000000596046419
10
149.92500163912771
20
8.0000005960464105
42
-0.41421356237309048
10
147.0000016391277
20
5.0750005960464142
10
73.000001639127703
20
5.0750005960464311
42
-0.41421356237309281
0
LWPOLYLINE
5
106
100
AcDbEntity
8
CUTOUTS
100
AcDbPolyline
90
4
70
1
43
0.0
10
55.075000000000003
20
35.074999999999982
10
55.075000000000003
20
54.924999999999983
10
59.42499999999999
20
54.924999999999983
10
59.42499999999999
20
35.074999999999982
0
LWPOLYLINE
5
107
100
AcDbEntity
8
CUTOUTS
100
AcDbPolyline
90
8
70
1
43
0.0
10
-102.00000000000004
20
74.924999999999983
42
0.41421356237309415
10
-104.92499999999994
20
72.000000000000057
10
-104.92499999999995
20
43.000000000000014
42
0.41421356237309065
10
-101.99999999999996
20
40.075000000000017
10
-27.999999999999964
20
40.075000000000017
42
0.41421356237309415
10
-25.07499999999995
20
43.000000000000028
10
-25.07499999999996
20
71.999999999999972
42
0.41421356237309415
10
-27.999999999999964
20
74.924999999999969
0
LWPOLYLINE
5
108
100
AcDbEntity
8
CUTOUTS
100
AcDbPolyline
90
8
70
1
43
0.0
10
-79.925000000005184
20
-72.000000000011227
42
0.41421356237367579
10
-77.000000000003411
20
-74.92500000001121
10
-53.000000000050555
20
-74.924999999971376
42
0.41421356237268503
10
-50.075000000045364
20
-71.999999999962128
10
-50.07500000004999
20
-43.000000000008669
42
0.41421356237309942
10
-53.000000000049738
20
-40.075000000008913
10
-77.000000000051742
20
-40.07500000000892
42
0.41421356237350238
10
-79.925000000045827
20
-43.000000000007077
0
LWPOLYLINE
5
109
100
AcDbEntity
8
CUTOUTS
100
AcDbPolyline
90
8
70
1
43
0.0
10
-129.92500000000001
20
-57.000000000000021
42
0.41421356237309065
10
-127
20
-59.925000000000011
10
-103
20
-59.925000000000011
42
0.41421356237310036
10
-100.075
20
-57.000000000000036
10
-100.075
20
26.999999999999986
42
0.41421356237309065
10
-103
20
29.924999999999979
10
-127
20
29.924999999999979
42
0.41421356237309148
10
-129.92500000000001
20
26.999999999999964
0
LWPOLYLINE
5
10A
100
AcDbEntity
8
CUTOUTS
100
AcDbPolyline
90
8
70
1
43
0.0
10
-12.000000000000002
20
29.924999999999983
42
0.41421356237309881
10
-14.924999999999995
20
26.999999999999964
10
-14.924999999999999
20
-57.000000000000021
42
0.41421356237309365
10
-12.000000000000002
20
-59.925000000000011
10
42
20
-59.925000000000011
42
0.41421356237309859
10
44.924999999999997
20
-57.000000000000036
10
44.924999999999997
20
26.999999999999986
42
0.4142135623730977
10
41.999999999999993
20
29.924999999999979
0
LWPOLYLINE
5
10B
100
AcDbEntity
8
PERIMETER
100
AcDbPolyline
90
32
70
1
43
0.0
10
160.07499999999999
20
85.575000000000017
10
139.97499999999999
20
85.574999999999989
10
139.97499999999999
20
90.074999999999989
10
115.02499999999999
20
90.074999999999989
10
115.02499999999999
20
85.574999999999989
10
14.975000000000005
20
85.574999999999989
10
14.974999999999998
20
90.074999999999989
10
-9.9750000000000068
20
90.074999999999989
10
-9.9750000000000068
20
85.574999999999989
10
-110.02499999999999
20
85.574999999999989
10
-110.02499999999999
20
90.074999999999989
10
-134.97499999999999
20
90.074999999999989
10
-134.97499999999999
20
85.574999999999989
10
-155.57500000000002
20
85.574999999999989
10
-155.57500000000002
20
54.974999999999987
10
-160.07499999999999
20
54.974999999999987
10
-160.07499999999999
20
35.024999999999977
10
-155.57500000000002
20
35.024999999999977
10
-155.57500000000002
20
-85.575000000000017
10
-134.97499999999999
20
-85.575000000000017
10
-134.97500000000002
20
-90.075000000000003
10
-110.02499999999998
20
-90.075000000000003
10
-110.02499999999999
20
-85.574999999988052
10
-9.975000000000005
20
-85.574999999988052
10
-9.9749999999999979
20
-90.075000000000003
10
14.975000000000012
20
-90.075000000000003
10
14.975000000000005
20
-85.575000000000017
10
115.02499999999999
20
-85.575000000000017
10
115.02499999999999
20
-90.075000000000003
10
139.97499999999999
20
-90.075000000000003
10
139.97499999999999
20
-85.575000000000017
10
160.07499999999999
20
-85.575000000000017
0
ENDSEC
0
SECTION
2
OBJECTS
0
DICTIONARY
5
C
100
AcDbDictionary
3
ACAD_GROUP
350
D
3
ACAD_MLINESTYLE
350
17
0
DICTIONARY
5
D
100
AcDbDictionary
0
DICTIONARY
5
1A
330
C
100
AcDbDictionary
0
DICTIONARY
5
17
100
AcDbDictionary
0
ENDSEC
0
EOF
