0
SECTION
2
HEADER
9
$INSUNITS
70
4
9
$ACADVER
1
AC1014
9
$HANDSEED
5
FFFF
0
ENDSEC
0
SECTION
2
TABLES
0
TABLE
2
VPORT
5
8
100
AcDbSymbolTable
0
ENDTAB
0
TABLE
2
LTYPE
5
5
100
AcDbSymbolTable
70
3
0
LTYPE
5
14
100
AcDbSymbolTableRecord
100
AcDbLinetypeTableRecord
2
BYBLOCK
70
0
0
LTYPE
5
15
100
AcDbSymbolTableRecord
100
AcDbLinetypeTableRecord
2
BYLAYER
70
0
0
LTYPE
5
16
100
AcDbSymbolTableRecord
100
AcDbLinetypeTableRecord
2
DASHED
70
0
3
Dashed __ __ __ __ __ __ __ __ __ __ __ __ __ _
72
65
73
2
40
0.75
49
0.5
74
0
49
-0.25
74
0
0
ENDTAB
0
TABLE
2
LAYER
5
2
100
AcDbSymbolTable
70
3
0
LAYER
5
50
100
AcDbSymbolTableRecord
100
AcDbLayerTableRecord
2
0
70
0
6
CONTINUOUS
0
LAYER
5
51
100
AcDbSymbolTableRecord
100
AcDbLayerTableRecord
2
CUTOUTS
70
0
62
1
6
CONTINUOUS
0
LAYER
5
52
100
AcDbSymbolTableRecord
100
AcDbLayerTableRecord
2
PERIMETER
70
0
62
5
6
CONTINUOUS
0
ENDTAB
0
TABLE
2
STYLE
5
3
100
AcDbSymbolTable
70
1
0
STYLE
5
11
100
AcDbSymbolTableRecord
100
AcDbTextStyleTableRecord
2
STANDARD
70
0
0
ENDTAB
0
TABLE
2
VIEW
5
6
100
AcDbSymbolTable
0
ENDTAB
0
TABLE
2
UCS
5
7
100
AcDbSymbolTable
0
ENDTAB
0
TABLE
2
APPID
5
9
100
AcDbSymbolTable
70
1
0
APPID
5
12
100
AcDbSymbolTableRecord
100
AcDbRegAppTableRecord
2
ACAD
70
0
0
ENDTAB
0
TABLE
2
DIMSTYLE
5
A
100
AcDbSymbolTable
0
ENDTAB
0
TABLE
2
BLOCK_RECORD
5
1
100
AcDbSymbolTable
70
2
0
BLOCK_RECORD
5
1F
100
AcDbSymbolTableRecord
100
AcDbBlockTableRecord
2
*MODEL_SPACE
0
BLOCK_RECORD
5
1B
100
AcDbSymbolTableRecord
100
AcDbBlockTableRecord
2
*PAPER_SPACE
0
ENDTAB
0
ENDSEC
0
SECTION
2
BLOCKS
0
BLOCK
5
20
100
AcDbEntity
100
AcDbBlockBegin
2
*MODEL_SPACE
0
ENDBLK
5
21
100
AcDbEntity
100
AcDbBlockEnd
0
BLOCK
5
1C
100
AcDbEntity
100
AcDbBlockBegin
2
*PAPER_SPACE
0
ENDBLK
5
1D
100
AcDbEntity
100
AcDbBlockEnd
0
ENDSEC
0
SECTION
2
ENTITIES
0
CIRCLE
5
100
100
AcDbEntity
8
CUTOUTS
100
AcDbCircle
10
-60
20
-29.000000000000004
30
0
40
1.5249999999999986
210
0
220
0
230
1
0
CIRCLE
5
101
100
AcDbEntity
8
CUTOUTS
100
AcDbCircle
10
73
20
47
30
0
40
1.5249999999999986
210
0
220
0
230
1
0
CIRCLE
5
102
100
AcDbEntity
8
CUTOUTS
100
AcDbCircle
10
73
20
-29.000000000000004
30
0
40
1.5249999999999986
210
0
220
0
230
1
0
CIRCLE
5
103
100
AcDbEntity
8
CUTOUTS
100
AcDbCircle
10
-47
20
43
30
0
40
1.5249999999999986
210
0
220
0
230
1
0
CIRCLE
5
104
100
AcDbEntity
8
CUTOUTS
100
AcDbCircle
10
-73
20
47
30
0
40
1.5249999999999897
210
0
220
0
230
1
0
CIRCLE
5
105
100
AcDbEntity
8
CUTOUTS
100
AcDbCircle
10
47
20
43
30
0
40
1.5249999999999986
210
0
220
0
230
1
0
LWPOLYLINE
5
106
100
AcDbEntity
8
CUTOUTS
100
AcDbPolyline
90
8
70
1
43
0.0
10
-75.924999999999997
20
-29.000000000000004
42
0.41421356237309681
10
-73
20
-31.924999999999997
10
-66
20
-31.924999999999997
42
0.41421356237309681
10
-63.075000000000003
20
-29.000000000000004
10
-63.074999999999989
20
2.0000000000000053
42
0.41421356237309492
10
-66
20
4.9250000000000078
10
-73
20
4.9250000000000034
42
0.4142135623730932
10
-75.925000000000011
20
2.0000000000000018
0
LWPOLYLINE
5
107
100
AcDbEntity
8
PERIMETER
100
AcDbPolyline
90
36
70
1
43
0.0
10
-54.825000000000003
20
-47.924999999999997
10
-54.825000000000003
20
-52.424999999999997
10
-35.174999999999997
20
-52.424999999999997
10
-35.174999999999997
20
-47.924999999999997
10
35.174999999999997
20
-47.924999999999997
10
35.174999999999997
20
-52.424999999999997
10
54.825000000000003
20
-52.424999999999997
10
54.825000000000003
20
-47.924999999999997
10
85.425000000000011
20
-47.924999999999997
10
85.425000000000011
20
-37.325000000000003
10
89.924999999999997
20
-37.325000000000003
10
89.924999999999997
20
-12.675000000000001
10
85.425000000000011
20
-12.675000000000002
10
85.425000000000011
20
17.674999999999997
10
89.924999999999997
20
17.675000000000001
10
89.924999999999997
20
42.325000000000003
10
85.425000000000011
20
42.325000000000003
10
85.425000000000011
20
52.424999999999997
10
54.825000000000003
20
52.424999999999997
10
54.825000000000003
20
56.924999999999997
10
30.175000000000011
20
56.924999999999997
10
30.175000000000015
20
52.424999999999997
10
-30.175000000000004
20
52.424999999999997
10
-30.175000000000001
20
56.924999999999997
10
-54.825000000000003
20
56.924999999999997
10
-54.825000000000003
20
52.424999999999997
10
-85.425000000000011
20
52.424999999999997
10
-85.425000000000011
20
42.325000000000003
10
-89.924999999999997
20
42.325000000000003
10
-89.924999999999997
20
17.675000000000001
10
-85.425000000000011
20
17.675000000000004
10
-85.425000000000011
20
-12.674999999999999
10
-89.924999999999997
20
-12.675000000000001
10
-89.924999999999997
20
-37.325000000000003
10
-85.425000000000011
20
-37.325000000000003
10
-85.425000000000011
20
-47.924999999999997
0
ENDSEC
0
SECTION
2
OBJECTS
0
DICTIONARY
5
C
100
AcDbDictionary
3
ACAD_GROUP
350
D
3
ACAD_MLINESTYLE
350
17
0
DICTIONARY
5
D
100
AcDbDictionary
0
DICTIONARY
5
1A
330
C
100
AcDbDictionary
0
DICTIONARY
5
17
100
AcDbDictionary
0
ENDSEC
0
EOF
