0
SECTION
2
HEADER
9
$INSUNITS
70
4
9
$ACADVER
1
AC1014
9
$HANDSEED
5
FFFF
0
ENDSEC
0
SECTION
2
TABLES
0
TABLE
2
VPORT
5
8
100
AcDbSymbolTable
0
ENDTAB
0
TABLE
2
LTYPE
5
5
100
AcDbSymbolTable
70
3
0
LTYPE
5
14
100
AcDbSymbolTableRecord
100
AcDbLinetypeTableRecord
2
BYBLOCK
70
0
0
LTYPE
5
15
100
AcDbSymbolTableRecord
100
AcDbLinetypeTableRecord
2
BYLAYER
70
0
0
LTYPE
5
16
100
AcDbSymbolTableRecord
100
AcDbLinetypeTableRecord
2
DASHED
70
0
3
Dashed __ __ __ __ __ __ __ __ __ __ __ __ __ _
72
65
73
2
40
0.75
49
0.5
74
0
49
-0.25
74
0
0
ENDTAB
0
TABLE
2
LAYER
5
2
100
AcDbSymbolTable
70
3
0
LAYER
5
50
100
AcDbSymbolTableRecord
100
AcDbLayerTableRecord
2
0
70
0
6
CONTINUOUS
0
LAYER
5
51
100
AcDbSymbolTableRecord
100
AcDbLayerTableRecord
2
CUTOUTS
70
0
62
1
6
CONTINUOUS
0
LAYER
5
52
100
AcDbSymbolTableRecord
100
AcDbLayerTableRecord
2
PERIMETER
70
0
62
5
6
CONTINUOUS
0
ENDTAB
0
TABLE
2
STYLE
5
3
100
AcDbSymbolTable
70
1
0
STYLE
5
11
100
AcDbSymbolTableRecord
100
AcDbTextStyleTableRecord
2
STANDARD
70
0
0
ENDTAB
0
TABLE
2
VIEW
5
6
100
AcDbSymbolTable
0
ENDTAB
0
TABLE
2
UCS
5
7
100
AcDbSymbolTable
0
ENDTAB
0
TABLE
2
APPID
5
9
100
AcDbSymbolTable
70
1
0
APPID
5
12
100
AcDbSymbolTableRecord
100
AcDbRegAppTableRecord
2
ACAD
70
0
0
ENDTAB
0
TABLE
2
DIMSTYLE
5
A
100
AcDbSymbolTable
0
ENDTAB
0
TABLE
2
BLOCK_RECORD
5
1
100
AcDbSymbolTable
70
2
0
BLOCK_RECORD
5
1F
100
AcDbSymbolTableRecord
100
AcDbBlockTableRecord
2
*MODEL_SPACE
0
BLOCK_RECORD
5
1B
100
AcDbSymbolTableRecord
100
AcDbBlockTableRecord
2
*PAPER_SPACE
0
ENDTAB
0
ENDSEC
0
SECTION
2
BLOCKS
0
BLOCK
5
20
100
AcDbEntity
100
AcDbBlockBegin
2
*MODEL_SPACE
0
ENDBLK
5
21
100
AcDbEntity
100
AcDbBlockEnd
0
BLOCK
5
1C
100
AcDbEntity
100
AcDbBlockBegin
2
*PAPER_SPACE
0
ENDBLK
5
1D
100
AcDbEntity
100
AcDbBlockEnd
0
ENDSEC
0
SECTION
2
ENTITIES
0
CIRCLE
5
100
100
AcDbEntity
8
CUTOUTS
100
AcDbCircle
10
225
20
2.25
30
0
40
1.0750000000000171
210
0
220
0
230
1
0
CIRCLE
5
101
100
AcDbEntity
8
CUTOUTS
100
AcDbCircle
10
311.33794193046515
20
15.480077554195642
30
0
40
1.0750000000000171
210
0
220
0
230
1
0
CIRCLE
5
102
100
AcDbEntity
8
CUTOUTS
100
AcDbCircle
10
15
20
2.25
30
0
40
1.0749999999999993
210
0
220
0
230
1
0
CIRCLE
5
103
100
AcDbEntity
8
CUTOUTS
100
AcDbCircle
10
100
20
60
30
0
40
1.0749999999999993
210
0
220
0
230
1
0
CIRCLE
5
104
100
AcDbEntity
8
CUTOUTS
100
AcDbCircle
10
100
20
2.25
30
0
40
1.0749999999999993
210
0
220
0
230
1
0
CIRCLE
5
105
100
AcDbEntity
8
CUTOUTS
100
AcDbCircle
10
15.000000000000004
20
60
30
0
40
1.0750000000000015
210
0
220
0
230
1
0
CIRCLE
5
106
100
AcDbEntity
8
CUTOUTS
100
AcDbCircle
10
233.55619599994466
20
93.261823484715563
30
0
40
1.0749999999999815
210
0
220
0
230
1
0
CIRCLE
5
107
100
AcDbEntity
8
CUTOUTS
100
AcDbCircle
10
310
20
2.25
30
0
40
1.0749999999999815
210
0
220
0
230
1
0
CIRCLE
5
108
100
AcDbEntity
8
CUTOUTS
100
AcDbCircle
10
272.44706896520483
20
54.37095051945569
30
0
40
1.0749999999999815
210
0
220
0
230
1
0
CIRCLE
5
109
100
AcDbEntity
8
CUTOUTS
100
AcDbCircle
10
217.25
20
55
30
0
40
1.0749999999999815
210
0
220
0
230
1
0
CIRCLE
5
10A
100
AcDbEntity
8
CUTOUTS
100
AcDbCircle
10
210.00000000000003
20
107.24999879280963
30
0
40
1.0749999999999815
210
0
220
0
230
1
0
CIRCLE
5
10B
100
AcDbEntity
8
CUTOUTS
100
AcDbCircle
10
75.000000000000028
20
9.9999999999999876
30
0
40
1.3750000000000018
210
0
220
0
230
1
0
CIRCLE
5
10C
100
AcDbEntity
8
CUTOUTS
100
AcDbCircle
10
110
20
10.499999999999982
30
2.3425705819590803e-13
40
1.5249999999999986
210
0
220
0
230
1
0
CIRCLE
5
10D
100
AcDbEntity
8
CUTOUTS
100
AcDbCircle
10
150
20
10.499999999999982
30
2.3425705819590803e-13
40
1.5249999999999986
210
0
220
0
230
1
0
CIRCLE
5
10E
100
AcDbEntity
8
CUTOUTS
100
AcDbCircle
10
172.00000000000003
20
50.500000000000007
30
0
40
1.5249999999999986
210
0
220
0
230
1
0
CIRCLE
5
10F
100
AcDbEntity
8
CUTOUTS
100
AcDbCircle
10
35.000000000000036
20
9.9999999999999929
30
0
40
1.3750000000000018
210
0
220
0
230
1
0
CIRCLE
5
110
100
AcDbEntity
8
CUTOUTS
100
AcDbCircle
10
185
20
60
30
0
40
1.0750000000000171
210
0
220
0
230
1
0
CIRCLE
5
111
100
AcDbEntity
8
CUTOUTS
100
AcDbCircle
10
150
20
50.5
30
2.3425705819590803e-13
40
1.5249999999999986
210
0
220
0
230
1
0
CIRCLE
5
112
100
AcDbEntity
8
CUTOUTS
100
AcDbCircle
10
172.00000000000003
20
10.500000000000004
30
0
40
1.5249999999999986
210
0
220
0
230
1
0
CIRCLE
5
113
100
AcDbEntity
8
CUTOUTS
100
AcDbCircle
10
217.25
20
100
30
0
40
1.0749999999999815
210
0
220
0
230
1
0
CIRCLE
5
114
100
AcDbEntity
8
CUTOUTS
100
AcDbCircle
10
75.000000000000028
20
50
30
0
40
1.3749999999999929
210
0
220
0
230
1
0
CIRCLE
5
115
100
AcDbEntity
8
CUTOUTS
100
AcDbCircle
10
35.000000000000028
20
50
30
0
40
1.3750000000000018
210
0
220
0
230
1
0
CIRCLE
5
116
100
AcDbEntity
8
CUTOUTS
100
AcDbCircle
10
217.25
20
10
30
0
40
1.0749999999999815
210
0
220
0
230
1
0
CIRCLE
5
117
100
AcDbEntity
8
CUTOUTS
100
AcDbCircle
10
110
20
50.5
30
-3.0531133177191805e-13
40
1.5249999999999986
210
0
220
0
230
1
0
CIRCLE
5
118
100
AcDbEntity
8
CUTOUTS
100
AcDbCircle
10
2.2500000000000355
20
15
30
0
40
1.0749999999999995
210
0
220
0
230
1
0
LWPOLYLINE
5
119
100
AcDbEntity
8
CUTOUTS
100
AcDbPolyline
90
4
70
1
43
0.0
10
132.5750019371504
20
42.808533219830508
10
132.5750019371504
20
53.783040824249554
42
-0.50611148043605081
10
151.45120423364978
20
21.088493110758179
10
141.94700218505434
20
26.575746721947379
42
0.44715285099129159
0
LWPOLYLINE
5
11A
100
AcDbEntity
8
CUTOUTS
100
AcDbPolyline
90
4
70
1
43
0.0
10
139.37200148312292
20
22.115716297718578
10
148.87620386257527
20
16.628462495509048
42
-0.50611148043605303
10
111.12379382919953
20
16.628465636511791
10
120.62799587779493
20
22.115719247701016
42
0.44715285099129864
0
LWPOLYLINE
5
11B
100
AcDbEntity
8
CUTOUTS
100
AcDbPolyline
90
4
70
1
43
0.0
10
253.17840917787126
20
70.563695808627628
10
239.14233957131816
20
84.599765415180599
10
242.21825406947985
20
87.675679913342307
10
256.25432367603293
20
73.639610306789251
0
LWPOLYLINE
5
11C
100
AcDbEntity
8
CUTOUTS
100
AcDbPolyline
90
4
70
1
43
0.0
10
305.75179835909137
20
24.14213562373094
10
302.6758838609299
20
21.066221125569378
10
288.6398142543768
20
35.10229073212237
10
291.71572875253838
20
38.17820523028395
0
LWPOLYLINE
5
11D
100
AcDbEntity
8
CUTOUTS
100
AcDbPolyline
90
4
70
1
43
0.0
10
25.075000000000003
20
57.824999999999996
10
25.075000000000003
20
62.174999999999997
10
49.924999999999997
20
62.174999999999997
10
49.924999999999997
20
57.824999999999996
0
LWPOLYLINE
5
11E
100
AcDbEntity
8
CUTOUTS
100
AcDbPolyline
90
4
70
1
43
0.0
10
118.05299657972697
20
26.5757504824508
10
108.54879420027461
20
21.088496680241281
42
-0.50611148043605025
10
127.4250019371504
20
53.783041252729866
10
127.4250019371504
20
42.80853403035151
42
0.44715285099129104
0
LWPOLYLINE
5
11F
100
AcDbEntity
8
CUTOUTS
100
AcDbPolyline
90
4
70
1
43
0.0
10
219.42499999999998
20
15.074999999999999
10
215.07499999999999
20
15.074999999999999
10
215.07499999999999
20
39.925000000000004
10
219.42499999999998
20
39.925000000000004
0
LWPOLYLINE
5
120
100
AcDbEntity
8
CUTOUTS
100
AcDbPolyline
90
4
70
1
43
0.0
10
150.07499999999999
20
62.174999999999997
10
174.92500000000001
20
62.174999999999997
10
174.92500000000001
20
57.824999999999996
10
150.07499999999999
20
57.824999999999996
0
LWPOLYLINE
5
121
100
AcDbEntity
8
CUTOUTS
100
AcDbPolyline
90
4
70
1
43
0.0
10
219.42499999999998
20
70.075000000000003
10
215.07499999999999
20
70.075000000000003
10
215.07499999999999
20
94.924999999999997
10
219.42499999999998
20
94.924999999999997
0
LWPOLYLINE
5
122
100
AcDbEntity
8
PERIMETER
100
AcDbPolyline
90
34
70
1
43
0.0
10
-0.07499999999999063
20
25.075000000000006
10
-0.075000000000008185
20
0.50000000000000711
42
0.41421356237309853
10
0.50000000000000022
20
-0.075000000000008046
10
25.075000000000006
20
-0.075000000000008338
10
25.075000000000006
20
4.4249999999999936
10
49.92499999999999
20
4.4249999999999936
10
49.92499999999999
20
-0.075000000000008393
10
150.07499999999999
20
-0.075000000000008338
10
150.07499999999999
20
4.4249999999999936
10
174.92500000000001
20
4.4249999999999936
10
174.92500000000001
20
-0.075000000000008393
10
275.07499999999999
20
-0.075000000000008338
10
275.07499999999999
20
4.4249999999999936
10
299.92500000000001
20
4.4249999999999936
10
299.92500000000001
20
-0.075000000000008393
10
319.5
20
-0.075000000000008324
42
0.4142135623730771
10
320.07499999999999
20
0.49999999999999545
10
320.07500000000005
20
20.924999999999997
10
324.68106608433067
20
20.924999999999969
10
236.39445557199639
20
109.21161044518158
42
0.66817863788173937
10
235.92500120719035
20
109.0171560803351
10
235.92500120719029
20
105.07499879280964
10
214.97500305474199
20
105.07499879280964
10
214.97500305474199
20
109.57499879280961
10
204.92500305474198
20
109.57499879280962
10
204.92500305474198
20
105.07499879280964
10
200.50000000000006
20
105.07499879280964
42
0.41421356237310403
10
199.92500000000007
20
104.49999879280963
10
199.92500000000007
20
100.325
10
0.50000000000004263
20
100.325
42
0.41421356237307683
10
-0.074999999999967037
20
99.75
10
-0.074999999999990602
20
49.92499999999999
10
4.425000000000038
20
49.92499999999999
10
4.425000000000038
20
25.075000000000006
0
ENDSEC
0
SECTION
2
OBJECTS
0
DICTIONARY
5
C
100
AcDbDictionary
3
ACAD_GROUP
350
D
3
ACAD_MLINESTYLE
350
17
0
DICTIONARY
5
D
100
AcDbDictionary
0
DICTIONARY
5
1A
330
C
100
AcDbDictionary
0
DICTIONARY
5
17
100
AcDbDictionary
0
ENDSEC
0
EOF
